<mxfile host="Electron" modified="2024-04-19T19:13:47.720Z" agent="Mozilla/5.0 (Windows NT 10.0; Win64; x64) AppleWebKit/537.36 (KHTML, like Gecko) draw.io/24.2.5 Chrome/120.0.6099.109 Electron/28.1.0 Safari/537.36" etag="XAUOcd3B4NPxEihKHCqT" version="24.2.5" type="device">
  <diagram id="C5RBs43oDa-KdzZeNtuy" name="Page-1">
    <mxGraphModel dx="638" dy="371" grid="1" gridSize="10" guides="1" tooltips="1" connect="1" arrows="1" fold="1" page="1" pageScale="1" pageWidth="827" pageHeight="1169" math="0" shadow="0">
      <root>
        <mxCell id="WIyWlLk6GJQsqaUBKTNV-0" />
        <mxCell id="WIyWlLk6GJQsqaUBKTNV-1" parent="WIyWlLk6GJQsqaUBKTNV-0" />
        <mxCell id="aq9vu6tbdxD4DeEx1tog-96" value="分配的页地址" style="edgeStyle=orthogonalEdgeStyle;rounded=0;orthogonalLoop=1;jettySize=auto;html=1;exitX=-0.002;exitY=0.196;exitDx=0;exitDy=0;exitPerimeter=0;fontFamily=Helvetica;fontSize=6;fontColor=default;endArrow=blockThin;endFill=1;endSize=4;startSize=4;labelPosition=center;verticalLabelPosition=top;align=center;verticalAlign=bottom;" edge="1" parent="WIyWlLk6GJQsqaUBKTNV-1" source="aq9vu6tbdxD4DeEx1tog-84">
          <mxGeometry relative="1" as="geometry">
            <mxPoint x="480" y="463" as="targetPoint" />
          </mxGeometry>
        </mxCell>
        <mxCell id="aq9vu6tbdxD4DeEx1tog-97" value="&lt;font style=&quot;font-size: 6px;&quot;&gt;弹信号&lt;/font&gt;" style="endArrow=blockThin;startArrow=none;html=1;rounded=0;fontFamily=Helvetica;fontSize=6;fontColor=default;entryX=-0.003;entryY=0.332;entryDx=0;entryDy=0;entryPerimeter=0;startFill=0;endFill=1;verticalAlign=bottom;horizontal=1;labelPosition=center;verticalLabelPosition=top;align=center;strokeWidth=1;endSize=4;startSize=4;" edge="1" parent="WIyWlLk6GJQsqaUBKTNV-1" target="aq9vu6tbdxD4DeEx1tog-84">
          <mxGeometry width="50" height="50" relative="1" as="geometry">
            <mxPoint x="480" y="480" as="sourcePoint" />
            <mxPoint x="530" y="490" as="targetPoint" />
            <mxPoint as="offset" />
          </mxGeometry>
        </mxCell>
        <mxCell id="aq9vu6tbdxD4DeEx1tog-105" value="" style="edgeLabel;html=1;align=center;verticalAlign=middle;resizable=0;points=[];strokeColor=default;fontFamily=Helvetica;fontSize=12;fontColor=default;fillColor=default;" vertex="1" connectable="0" parent="aq9vu6tbdxD4DeEx1tog-97">
          <mxGeometry x="0.3725" y="-1" relative="1" as="geometry">
            <mxPoint as="offset" />
          </mxGeometry>
        </mxCell>
        <mxCell id="aq9vu6tbdxD4DeEx1tog-106" value="" style="edgeLabel;html=1;align=center;verticalAlign=middle;resizable=0;points=[];strokeColor=default;fontFamily=Helvetica;fontSize=12;fontColor=default;fillColor=default;" vertex="1" connectable="0" parent="aq9vu6tbdxD4DeEx1tog-97">
          <mxGeometry x="-0.0655" y="-1" relative="1" as="geometry">
            <mxPoint as="offset" />
          </mxGeometry>
        </mxCell>
        <mxCell id="aq9vu6tbdxD4DeEx1tog-98" value="&lt;font style=&quot;font-size: 6px;&quot;&gt;推信号&lt;/font&gt;" style="endArrow=blockThin;startArrow=none;html=1;rounded=0;fontFamily=Helvetica;fontSize=6;fontColor=default;entryX=-0.003;entryY=0.8;entryDx=0;entryDy=0;entryPerimeter=0;startFill=0;endFill=1;verticalAlign=bottom;labelPosition=center;verticalLabelPosition=top;align=center;startSize=4;endSize=4;" edge="1" parent="WIyWlLk6GJQsqaUBKTNV-1" target="aq9vu6tbdxD4DeEx1tog-84">
          <mxGeometry width="50" height="50" relative="1" as="geometry">
            <mxPoint x="480" y="536" as="sourcePoint" />
            <mxPoint x="560" y="520" as="targetPoint" />
          </mxGeometry>
        </mxCell>
        <mxCell id="aq9vu6tbdxD4DeEx1tog-99" value="" style="endArrow=blockThin;startArrow=none;html=1;rounded=0;fontFamily=Helvetica;fontSize=10;fontColor=default;entryX=-0.002;entryY=0.666;entryDx=0;entryDy=0;entryPerimeter=0;startFill=0;endFill=1;labelPosition=center;verticalLabelPosition=top;align=center;verticalAlign=bottom;endSize=4;startSize=4;" edge="1" parent="WIyWlLk6GJQsqaUBKTNV-1" target="aq9vu6tbdxD4DeEx1tog-84">
          <mxGeometry width="50" height="50" relative="1" as="geometry">
            <mxPoint x="480" y="520" as="sourcePoint" />
            <mxPoint x="610" y="554" as="targetPoint" />
          </mxGeometry>
        </mxCell>
        <mxCell id="aq9vu6tbdxD4DeEx1tog-108" value="释放的页地址" style="edgeLabel;html=1;align=center;verticalAlign=bottom;resizable=0;points=[];strokeColor=default;fontFamily=Helvetica;fontSize=6;fontColor=default;fillColor=default;labelPosition=center;verticalLabelPosition=top;" vertex="1" connectable="0" parent="aq9vu6tbdxD4DeEx1tog-99">
          <mxGeometry x="-0.0114" y="-1" relative="1" as="geometry">
            <mxPoint y="-1" as="offset" />
          </mxGeometry>
        </mxCell>
        <mxCell id="aq9vu6tbdxD4DeEx1tog-58" value="" style="group" vertex="1" connectable="0" parent="WIyWlLk6GJQsqaUBKTNV-1">
          <mxGeometry x="340" y="750" width="60" height="70" as="geometry" />
        </mxCell>
        <mxCell id="aq9vu6tbdxD4DeEx1tog-9" value="" style="shape=cylinder3;whiteSpace=wrap;html=1;boundedLbl=1;backgroundOutline=1;size=15;" vertex="1" parent="aq9vu6tbdxD4DeEx1tog-58">
          <mxGeometry width="60" height="70" as="geometry" />
        </mxCell>
        <mxCell id="aq9vu6tbdxD4DeEx1tog-29" value="SRAM&lt;div&gt;&lt;span style=&quot;background-color: initial;&quot;&gt;2048 页&lt;/span&gt;&lt;/div&gt;" style="text;html=1;align=center;verticalAlign=middle;whiteSpace=wrap;rounded=0;fontSize=8;fontStyle=1" vertex="1" parent="aq9vu6tbdxD4DeEx1tog-58">
          <mxGeometry y="30" width="60" height="30" as="geometry" />
        </mxCell>
        <mxCell id="aq9vu6tbdxD4DeEx1tog-60" value="" style="group" vertex="1" connectable="0" parent="WIyWlLk6GJQsqaUBKTNV-1">
          <mxGeometry x="340" y="830" width="60" height="70" as="geometry" />
        </mxCell>
        <mxCell id="aq9vu6tbdxD4DeEx1tog-57" value="" style="shape=cylinder3;whiteSpace=wrap;html=1;boundedLbl=1;backgroundOutline=1;size=15;strokeColor=default;align=center;verticalAlign=middle;fontFamily=Helvetica;fontSize=12;fontColor=default;fillColor=default;" vertex="1" parent="aq9vu6tbdxD4DeEx1tog-60">
          <mxGeometry width="60" height="70" as="geometry" />
        </mxCell>
        <mxCell id="aq9vu6tbdxD4DeEx1tog-59" value="&lt;div&gt;&lt;span style=&quot;background-color: initial;&quot;&gt;校验码&lt;/span&gt;&lt;/div&gt;&lt;div&gt;&lt;span style=&quot;background-color: initial;&quot;&gt;2048 字节&lt;/span&gt;&lt;/div&gt;" style="text;html=1;align=center;verticalAlign=middle;whiteSpace=wrap;rounded=0;fontSize=8;fontStyle=1" vertex="1" parent="aq9vu6tbdxD4DeEx1tog-60">
          <mxGeometry y="30" width="60" height="30" as="geometry" />
        </mxCell>
        <mxCell id="aq9vu6tbdxD4DeEx1tog-68" value="" style="group;fillColor=#b0e3e6;strokeColor=#0e8088;" vertex="1" connectable="0" parent="WIyWlLk6GJQsqaUBKTNV-1">
          <mxGeometry x="340" y="641" width="60" height="60" as="geometry" />
        </mxCell>
        <mxCell id="aq9vu6tbdxD4DeEx1tog-61" value="" style="shape=internalStorage;whiteSpace=wrap;html=1;backgroundOutline=1;strokeColor=default;align=center;verticalAlign=middle;fontFamily=Helvetica;fontSize=12;fontColor=default;fillColor=default;dx=10;dy=10;" vertex="1" parent="aq9vu6tbdxD4DeEx1tog-68">
          <mxGeometry width="60" height="60" as="geometry" />
        </mxCell>
        <mxCell id="aq9vu6tbdxD4DeEx1tog-62" value="跳转表&lt;div&gt;2048 半字&lt;br&gt;&lt;/div&gt;" style="text;html=1;align=center;verticalAlign=middle;whiteSpace=wrap;rounded=0;fontSize=8;fontStyle=1" vertex="1" parent="aq9vu6tbdxD4DeEx1tog-68">
          <mxGeometry x="10" y="10" width="50" height="50" as="geometry" />
        </mxCell>
        <mxCell id="aq9vu6tbdxD4DeEx1tog-111" value="" style="group" vertex="1" connectable="0" parent="WIyWlLk6GJQsqaUBKTNV-1">
          <mxGeometry x="565" y="440" width="161" height="120" as="geometry" />
        </mxCell>
        <mxCell id="aq9vu6tbdxD4DeEx1tog-84" value="" style="rounded=1;whiteSpace=wrap;html=1;align=center;verticalAlign=middle;fontFamily=Helvetica;fontSize=12;fillColor=#fad7ac;strokeColor=#CC6600;strokeWidth=1.5;points=[[0,0,0,0,0],[0,0.25,0,0,0],[0,0.5,0,0,0],[0,0.75,0,0,0],[0,1,0,0,0],[0.25,0,0,0,0],[0.25,1,0,0,0],[0.5,0,0,0,0],[0.5,1,0,0,0],[0.75,0,0,0,0],[0.75,1,0,0,0],[1,0,0,0,0],[1,0.25,0,0,0],[1,0.5,0,0,0],[1,0.75,0,0,0],[1,1,0,0,0]];" vertex="1" parent="aq9vu6tbdxD4DeEx1tog-111">
          <mxGeometry width="160" height="120" as="geometry" />
        </mxCell>
        <mxCell id="aq9vu6tbdxD4DeEx1tog-70" value="" style="group;fillColor=none;" vertex="1" connectable="0" parent="aq9vu6tbdxD4DeEx1tog-111">
          <mxGeometry x="91" y="11" width="60" height="60" as="geometry" />
        </mxCell>
        <mxCell id="aq9vu6tbdxD4DeEx1tog-71" value="" style="shape=internalStorage;whiteSpace=wrap;html=1;backgroundOutline=1;strokeColor=#66CC00;align=center;verticalAlign=middle;fontFamily=Helvetica;fontSize=12;fontColor=default;fillColor=#CCFFCC;dx=10;dy=10;rounded=1;" vertex="1" parent="aq9vu6tbdxD4DeEx1tog-70">
          <mxGeometry width="60" height="60" as="geometry" />
        </mxCell>
        <mxCell id="aq9vu6tbdxD4DeEx1tog-72" value="&lt;div&gt;位图&lt;/div&gt;&lt;div&gt;&lt;div&gt;2048 位&lt;br&gt;&lt;/div&gt;&lt;/div&gt;" style="text;html=1;align=center;verticalAlign=middle;whiteSpace=wrap;rounded=0;fontSize=8;fontStyle=1;fillColor=none;strokeColor=none;fontColor=#336600;" vertex="1" parent="aq9vu6tbdxD4DeEx1tog-70">
          <mxGeometry x="10" y="10" width="50" height="50" as="geometry" />
        </mxCell>
        <mxCell id="aq9vu6tbdxD4DeEx1tog-85" value="&lt;div style=&quot;font-size: 10px;&quot;&gt;&lt;font&gt;内存动态&lt;br style=&quot;font-size: 10px;&quot;&gt;分配与回收&lt;/font&gt;&lt;/div&gt;" style="text;html=1;align=center;verticalAlign=middle;whiteSpace=wrap;rounded=0;fontSize=10;fontStyle=1;fontColor=#663300;" vertex="1" parent="aq9vu6tbdxD4DeEx1tog-111">
          <mxGeometry x="71" y="81" width="90" height="30" as="geometry" />
        </mxCell>
        <mxCell id="aq9vu6tbdxD4DeEx1tog-86" value="" style="group;rounded=0;" vertex="1" connectable="0" parent="aq9vu6tbdxD4DeEx1tog-111">
          <mxGeometry x="11" y="11" width="60" height="100" as="geometry" />
        </mxCell>
        <mxCell id="aq9vu6tbdxD4DeEx1tog-63" value="" style="shape=process;whiteSpace=wrap;html=1;backgroundOutline=1;strokeColor=#007FFF;align=center;verticalAlign=middle;fontFamily=Helvetica;fontSize=12;fillColor=#b1ddf0;rotation=90;size=0.2;rounded=1;" vertex="1" parent="aq9vu6tbdxD4DeEx1tog-86">
          <mxGeometry x="-20" y="20" width="100" height="60" as="geometry" />
        </mxCell>
        <mxCell id="aq9vu6tbdxD4DeEx1tog-64" value="&lt;div&gt;空闲队列&lt;/div&gt;&lt;div&gt;2048 页地址&lt;br&gt;&lt;/div&gt;" style="text;html=1;align=center;verticalAlign=middle;whiteSpace=wrap;rounded=0;fontSize=8;fontStyle=1;fontColor=#003366;" vertex="1" parent="aq9vu6tbdxD4DeEx1tog-86">
          <mxGeometry y="20" width="60" height="60" as="geometry" />
        </mxCell>
        <mxCell id="aq9vu6tbdxD4DeEx1tog-66" value="尾 页地址" style="text;html=1;align=center;verticalAlign=middle;whiteSpace=wrap;rounded=0;fontSize=8;fontStyle=1;fontColor=#003366;" vertex="1" parent="aq9vu6tbdxD4DeEx1tog-86">
          <mxGeometry y="80" width="60" height="20" as="geometry" />
        </mxCell>
        <mxCell id="aq9vu6tbdxD4DeEx1tog-65" value="头 页地址" style="text;html=1;align=center;verticalAlign=middle;whiteSpace=wrap;rounded=0;fontSize=8;fontStyle=1;fontColor=#003366;" vertex="1" parent="aq9vu6tbdxD4DeEx1tog-86">
          <mxGeometry width="60" height="20" as="geometry" />
        </mxCell>
      </root>
    </mxGraphModel>
  </diagram>
</mxfile>
